<?xml version="1.0" encoding="UTF-8"?>
<svg width="200" height="80" viewBox="0 0 200 80" xmlns="http://www.w3.org/2000/svg">
    <!-- 定义渐变 -->
    <defs>
        <!-- 日间背景渐变 -->
        <linearGradient id="dayGradient" x1="0%" y1="0%" x2="100%" y2="0%">
            <stop offset="0%" style="stop-color:#4B95E9"/>
            <stop offset="100%" style="stop-color:#63A9F8"/>
        </linearGradient>
        <!-- 夜间背景渐变 -->
        <linearGradient id="nightGradient" x1="0%" y1="0%" x2="100%" y2="0%">
            <stop offset="0%" style="stop-color:#1F2937"/>
            <stop offset="100%" style="stop-color:#374151"/>
        </linearGradient>
    </defs>

    <!-- 背景胶囊 -->
    <rect id="background" x="0" y="0" width="200" height="80" rx="40" fill="url(#dayGradient)"/>
    
    <!-- 云朵组 -->
    <g id="clouds" fill="#FFFFFF" opacity="0.9">
        <path d="M40,30 Q50,20 60,30 T80,30 T100,30 T120,30 Q130,30 130,40 T110,50 H50 Q40,50 40,40 Z" opacity="0.8"/>
        <path d="M90,25 Q100,15 110,25 T130,25 T150,25 Q160,25 160,35 T140,45 H80 Q70,45 70,35 Z" opacity="0.6"/>
    </g>

    <!-- 星星组 -->
    <g id="stars" fill="#FFFFFF" opacity="0">
        <circle cx="50" cy="25" r="1"/>
        <circle cx="70" cy="30" r="1"/>
        <circle cx="90" cy="20" r="1"/>
        <circle cx="65" cy="40" r="1"/>
        <circle cx="85" cy="35" r="1"/>
        <!-- 闪烁的星星 -->
        <circle cx="60" cy="25" r="1.5">
            <animate attributeName="opacity"
                     values="0;1;0"
                     dur="2s"
                     repeatCount="indefinite"/>
        </circle>
        <circle cx="80" cy="30" r="1.5">
            <animate attributeName="opacity"
                     values="0;1;0"
                     dur="1.5s"
                     repeatCount="indefinite"/>
        </circle>
    </g>

    <!-- 太阳/月亮 -->
    <g id="toggleButton" transform="translate(40, 40)">
        <!-- 太阳 -->
        <circle id="sun" cx="10" cy="0" r="20" fill="#FFD700"/>
        
        <!-- 月亮 -->
        <g id="moon" opacity="0">
            <circle cx="110" cy="0" r="20" fill="#FFFFFF"/>
            <circle cx="118" cy="-8" r="3" fill="#E1E1E1"/>
            <circle cx="105" cy="5" r="4" fill="#E1E1E1"/>
            <circle cx="113" cy="10" r="3" fill="#E1E1E1"/>
        </g>
    </g>

    <!-- 交互区域 -->
    <rect id="hitArea" x="0" y="0" width="200" height="80" fill="transparent" style="cursor: pointer"/>
</svg>
