<?xml version="1.0" encoding="UTF-8"?>
<svg width="128" height="128" viewBox="0 0 128 128" xmlns="http://www.w3.org/2000/svg">
    <!-- 背景圆 -->
    <circle cx="64" cy="64" r="60" fill="#f5f5f5"/>
    
    <!-- 番茄主体 -->
    <circle cx="64" cy="68" r="48" fill="#e74c3c"/>
    
    <!-- 叶子 -->
    <path d="M64 20 C64 20, 72 8, 80 20 L64 32 Z" fill="#27ae60"/>
    <path d="M64 20 C64 20, 56 8, 48 20 L64 32 Z" fill="#2ecc71"/>
    
    <!-- 茎 -->
    <rect x="62" y="20" width="4" height="12" fill="#27ae60"/>
    
    <!-- 高光效果 -->
    <circle cx="48" cy="52" r="16" fill="#ffffff" opacity="0.2"/>
    <circle cx="80" cy="84" r="12" fill="#c0392b" opacity="0.3"/>
    
    <!-- 时钟刻度 -->
    <g stroke="#ffffff" stroke-width="2" opacity="0.8">
        <line x1="64" y1="40" x2="64" y2="44"/>
        <line x1="88" y1="68" x2="84" y2="68"/>
        <line x1="64" y1="92" x2="64" y2="96"/>
        <line x1="40" y1="68" x2="44" y2="68"/>
    </g>
    
    <!-- 时钟指针 -->
    <g stroke="#ffffff" stroke-width="3" stroke-linecap="round">
        <line x1="64" y1="68" x2="64" y2="48" transform="rotate(45, 64, 68)"/>
        <line x1="64" y1="68" x2="64" y2="56" transform="rotate(-60, 64, 68)"/>
    </g>
</svg>
